/vscmnt/brussel_pixiu_data/_data_brussel/112/vsc11236/PredSimResults/SUBJ07mtu3D/weighted-LRposFixed/expIG/worker_01.mot
version=1
nRows=4
nColumns=50
inDegrees=yes
endheader
                time	         pelvis_tilt	         pelvis_list	     pelvis_rotation	           pelvis_tx	           pelvis_ty	           pelvis_tz	       hip_flexion_r	     hip_adduction_r	      hip_rotation_r	        knee_angle_r	       ankle_angle_r	         mtp_angle_r	       hip_flexion_l	     hip_adduction_l	      hip_rotation_l	        knee_angle_l	       ankle_angle_l	         mtp_angle_l	    lumbar_extension	      lumbar_bending	     lumbar_rotation	 ercspn_r/activation	 intobl_r/activation	 extobl_r/activation	    abd_r/activation	    add_r/activation	hamstrings_r/activation	bifemsh_r/activation	glut_max_r/activation	iliopsoas_r/activation	rect_fem_r/activation	  vasti_r/activation	gastroc_r/activation	 soleus_r/activation	tib_ant_r/activation	 ercspn_l/activation	 intobl_l/activation	 extobl_l/activation	    abd_l/activation	    add_l/activation	hamstrings_l/activation	bifemsh_l/activation	glut_max_l/activation	iliopsoas_l/activation	rect_fem_l/activation	  vasti_l/activation	gastroc_l/activation	 soleus_l/activation	tib_ant_l/activation	
          2.00000002	         -7.95861495	         -6.56817035	          2.38777186	          2.54000003	          0.89509285	         -0.01507005	         44.54035122	          8.41870084	         -2.57683847	        -55.09728125	        -30.39490220	          0.07218717	         15.75737791	         -3.51271700	          6.69731187	        -33.86928937	          4.34038434	         18.69288744	         -4.31017800	          0.56004042	         -5.46560310	          0.12017900	          0.03137213	          0.05503122	          0.11893971	          0.15534650	          0.25900897	          0.15327660	          0.09918433	          0.01712836	          0.01333332	          0.16446160	          0.24969214	          0.17297052	          0.02137731	          0.07578396	          0.24507217	          0.17478899	          0.02265752	          0.11342133	          0.01399477	          0.07491534	          0.02491939	          0.60191711	          0.64876337	          0.03305081	          0.09658348	          0.09651952	          0.43018903	
          2.02000002	         -7.74764023	         -5.97798258	          3.86253544	          2.56424946	          0.89674803	         -0.01526332	         42.10606309	          8.61965267	         -0.25741608	        -54.54686926	        -30.69544556	          3.67575318	         17.69753451	         -2.31516422	          8.00485161	        -38.67443088	          6.02138059	         14.60489813	         -4.25598922	         -0.56872560	         -4.85907009	          0.09013425	          0.02352910	          0.04127341	          0.12783523	          0.16576424	          0.19425673	          0.11495745	          0.15760744	          0.01284627	          0.00999999	          0.22256056	          0.25543486	          0.18494328	          0.01603298	          0.05683797	          0.18380412	          0.19075069	          0.01699314	          0.14668177	          0.01049608	          0.05618651	          0.01868954	          0.45143783	          0.70698962	          0.02851977	          0.07243761	          0.07238964	          0.42692547	
          2.04000002	         -7.57601556	         -5.40371037	          5.40569312	          2.58781242	          0.89725585	         -0.01532753	         39.39000745	          8.60853917	          1.55891975	        -54.02024724	        -30.18980152	          9.22729328	         19.38460907	         -1.18325762	          8.86050116	        -39.68429630	          7.95212577	         11.27295046	         -4.37074894	         -1.82706303	         -4.19834373	          0.06760069	          0.04505197	          0.03095506	          0.09740202	          0.12432318	          0.14569254	          0.08621809	          0.11820558	          0.00999999	          0.00999999	          0.23357000	          0.23676948	          0.21520464	          0.01202474	          0.06567168	          0.13785309	          0.14306302	          0.01274485	          0.13457548	          0.00999999	          0.04213988	          0.01401716	          0.34494851	          0.53024222	          0.06045766	          0.05432821	          0.05429223	          0.38558037	
          2.06000002	         -7.37906650	         -5.03926728	          6.92435636	          2.61068475	          0.89704866	         -0.01527568	         36.84509507	          8.55365474	          2.58246267	        -53.66645685	        -29.83121080	         15.20465266	         20.59740634	         -0.34875977	          9.27763858	        -37.30508918	          9.48411572	          8.61294534	         -4.68294696	         -2.93363922	         -3.46845785	          0.09846352	          0.05115066	          0.02321630	          0.12694382	          0.12371934	          0.10926941	          0.06466357	          0.08865419	          0.00999999	          0.00999999	          0.23067011	          0.17757711	          0.21430782	          0.00999999	          0.12364122	          0.10338982	          0.10729726	          0.04274309	          0.14501904	          0.00999999	          0.03160491	          0.01051287	          0.25871138	          0.39768166	          0.04534324	          0.04074615	          0.04071917	          0.34440204	
